<?xml version="1.0" encoding="UTF-8" standalone="no"?>
<svg
   xmlns:dc="http://purl.org/dc/elements/1.1/"
   xmlns:cc="http://creativecommons.org/ns#"
   xmlns:rdf="http://www.w3.org/1999/02/22-rdf-syntax-ns#"
   xmlns:svg="http://www.w3.org/2000/svg"
   xmlns="http://www.w3.org/2000/svg"
   xmlns:sodipodi="http://sodipodi.sourceforge.net/DTD/sodipodi-0.dtd"
   xmlns:inkscape="http://www.inkscape.org/namespaces/inkscape"
   version="1.1"
   id="svg2"
   viewBox="0 0 52.687999 47.823896"
   height="13.496966mm"
   width="14.869724mm"
   inkscape:version="0.91 r13725"
   sodipodi:docname="udacity_logo.svg">
  <sodipodi:namedview
     pagecolor="#ffffff"
     bordercolor="#666666"
     borderopacity="1"
     objecttolerance="10"
     gridtolerance="10"
     guidetolerance="10"
     inkscape:pageopacity="0"
     inkscape:pageshadow="2"
     inkscape:window-width="1536"
     inkscape:window-height="801"
     id="namedview8"
     showgrid="false"
     inkscape:zoom="3.5881182"
     inkscape:cx="90.576607"
     inkscape:cy="-4.8025573"
     inkscape:window-x="-8"
     inkscape:window-y="-8"
     inkscape:window-maximized="1"
     inkscape:current-layer="svg2"
     fit-margin-top="0"
     fit-margin-left="0"
     fit-margin-right="0"
     fit-margin-bottom="0" />
  <defs
     id="defs4" />
  <metadata
     id="metadata7">
    <rdf:RDF>
      <cc:Work
         rdf:about="">
        <dc:format>image/svg+xml</dc:format>
        <dc:type
           rdf:resource="http://purl.org/dc/dcmitype/StillImage" />
        <dc:title></dc:title>
      </cc:Work>
    </rdf:RDF>
  </metadata>
  <g
     id="layer1"
     transform="matrix(0.21237635,0,0,0.21237635,-20.172423,-65.493428)">
    <path
       id="path3354"
       d="m 100,352.3622 0,100 c 5.10659,22.03571 17.76172,42.24875 35.35363,56.46755 17.59191,14.21881 40.00944,22.35354 62.62606,22.72535 23.42108,0.38503 46.89438,-7.57702 65.24791,-22.13184 18.35354,-14.55482 31.45413,-35.59679 36.41526,-58.48963 l -0.35715,-98.57143"
       style="fill:none;fill-rule:evenodd;stroke:#02b3e4;stroke-width:4;stroke-linecap:butt;stroke-linejoin:miter;stroke-miterlimit:4;stroke-dasharray:none;stroke-opacity:1"
       inkscape:connector-curvature="0" />
    <path
       id="path3354-9"
       d="m 100,352.3622 0,0 41.42857,-39.28571 0,100 c 5.10659,22.03571 17.76172,42.24875 35.35363,56.46755 17.59191,14.21881 40.00944,22.35354 62.62606,22.72535 23.42108,0.38503 46.89438,-7.57702 65.24791,-22.13184 18.35354,-14.55482 31.45413,-35.59679 36.41526,-58.48963 L 340.71428,313.07649 300,352.3622 l 0,0"
       style="fill:none;fill-rule:evenodd;stroke:#02b3e4;stroke-width:4;stroke-linecap:butt;stroke-linejoin:miter;stroke-miterlimit:4;stroke-dasharray:none;stroke-opacity:1"
       inkscape:connector-curvature="0" />
  </g>
</svg>
